<svg xmlns="http://www.w3.org/2000/svg" viewBox="0 0 500 600" width="100%" height="100%">
  <defs>
    <linearGradient id="gradRed" x1="0.2" y1="0.9" x2="0.7" y2="0.0">
      <stop offset="0%" stop-color="#FF5D23" />
      <stop offset="45%" stop-color="#E8381A" />
      <stop offset="85%" stop-color="#C41C10" />
    </linearGradient>

    <linearGradient id="gradOrange" x1="0.1" y1="0.9" x2="0.6" y2="0.1">
      <stop offset="0%" stop-color="#FF9600" />
      <stop offset="50%" stop-color="#FF6A00" />
      <stop offset="100%" stop-color="#EE3015" />
    </linearGradient>

    <linearGradient id="gradYellowOrange" x1="0.3" y1="0.95" x2="0.5" y2="0.05">
      <stop offset="0%" stop-color="#FFD000" />
      <stop offset="40%" stop-color="#FF9E00" />
      <stop offset="100%" stop-color="#FF5500" />
    </linearGradient>

    <linearGradient id="gradYellow" x1="0.5" y1="0.9" x2="0.5" y2="0.1">
      <stop offset="0%" stop-color="#FFF36D" />
      <stop offset="50%" stop-color="#FFDF00" />
      <stop offset="100%" stop-color="#FFA000" />
    </linearGradient>

    <radialGradient id="gradCore" cx="50%" cy="65%" r="45%">
      <stop offset="0%" stop-color="#FFFFFF" />
      <stop offset="40%" stop-color="#FFFFB0" />
      <stop offset="80%" stop-color="#FFEA3D" />
      <stop offset="100%" stop-color="#FFC100" stop-opacity="0" />
    </radialGradient>
  </defs>

  <path
    d="M 350,5 C 335,45 320,80 345,130 
           C 365,160 410,230 405,290 
           C 400,340 375,375 350,410 
           C 310,465 240,510 180,510 
           C 120,510 60,460 30,390 
           C 10,345 5,290 20,240 
           C 12,250 5,260 0,270 
           C 5,230 35,170 100,210 
           C 120,180 128,140 130,90 
           C 135,50 180,10 240,0 
           C 200,40 180,90 190,140 
           C 200,190 240,220 270,170 
           C 290,135 310,60 350,5 Z"
    fill="url(#gradRed)"
  />

  <path
    d="M 350,5 C 330,60 305,100 310,160 
           C 315,210 350,240 380,260 
           C 420,285 450,320 470,360 
           C 495,410 495,470 455,520 
           C 410,575 330,600 245,600 
           C 150,600 65,565 15,485 
           C -10,440 -2,380 20,335 
           C 30,315 50,280 80,265 
           C 70,290 65,320 75,350 
           C 85,380 110,400 130,380 
           C 150,360 145,310 130,260 
           C 115,210 100,170 100,110 
           C 140,150 150,210 170,250 
           C 185,280 205,300 230,280 
           C 255,260 250,210 250,170 
           C 250,110 290,50 350,5 Z"
    fill="url(#gradOrange)"
  />

  <path
    d="M 285,60 C 260,110 245,160 250,210 
           C 255,260 285,290 320,310 
           C 360,335 400,370 415,415 
           C 435,470 405,530 350,565 
           C 290,600 200,595 130,550 
           C 70,510 45,435 60,365 
           C 70,320 100,280 130,240 
           C 120,280 125,320 145,345 
           C 165,370 195,360 205,320 
           C 215,280 195,220 185,170 
           C 175,120 205,80 285,60 Z"
    fill="url(#gradYellowOrange)"
  />

  <path
    d="M 255,140 C 235,185 220,230 230,275 
           C 240,320 270,345 295,370 
           C 330,405 355,440 345,490 
           C 335,540 280,570 220,565 
           C 160,560 115,515 110,455 
           C 105,400 135,340 165,290 
           C 155,325 165,360 190,375 
           C 215,390 235,365 235,330 
           C 235,280 215,220 255,140 Z"
    fill="url(#gradYellow)"
  />

  <ellipse cx="230" cy="420" rx="90" ry="110" fill="url(#gradCore)" />

  <path
    d="M 160,600 C 150,540 170,480 205,440 
           C 220,420 240,410 255,420 
           C 270,430 280,450 285,470 
           C 295,510 310,550 340,600 
           C 280,590 220,590 160,600 Z"
    fill="#FFFFFF"
  />
</svg>
